<svg width="390" height="180" viewBox="0 0 390 180" fill="none" xmlns="http://www.w3.org/2000/svg">
<path d="M360.283 148H82.1416C80.0999 148 78.6546 146.005 79.291 144.065L91.7792 106L103.919 66.1491C104.308 64.8752 105.489 64.0096 106.821 64.0235L247.779 65.5H385.841C387.888 65.5 389.334 67.5044 388.688 69.4466L377.697 102.5L363.128 145.954C362.718 147.176 361.573 148 360.283 148Z" fill="#009F8F"/>
<path d="M105.42 127.445V94.3838C105.42 91.1559 107.672 88.6748 112.177 86.9404C114.61 86.001 117.356 85.5312 120.415 85.5312C123.474 85.5312 126.22 86.001 128.653 86.9404C133.158 88.6748 135.41 91.1559 135.41 94.3838V124.193L128.545 127.445H128.184V95.6484C128.184 94.444 127.425 93.5407 125.907 92.9385C124.414 92.3363 122.583 92.0352 120.415 92.0352C118.247 92.0352 116.404 92.3363 114.887 92.9385C113.393 93.5407 112.646 94.444 112.646 95.6484V124.193L105.781 127.445H105.42ZM146.25 117.87V94.3838C146.25 91.1559 148.502 88.6748 153.007 86.9404C155.44 86.001 158.186 85.5312 161.245 85.5312C164.304 85.5312 167.05 86.001 169.483 86.9404C173.988 88.723 176.24 91.2041 176.24 94.3838V132.685C176.24 135.912 173.988 138.394 169.483 140.128C167.05 141.067 164.304 141.537 161.245 141.537H150.008V141.176L152.898 135.033H161.245C163.413 135.033 165.244 134.732 166.737 134.13C168.255 133.528 169.014 132.624 169.014 131.42V125.494C166.701 126.313 164.112 126.723 161.245 126.723C158.186 126.723 155.44 126.253 153.007 125.313C148.502 123.531 146.25 121.05 146.25 117.87ZM153.477 116.605C153.477 117.81 154.223 118.713 155.717 119.315C157.234 119.918 159.077 120.219 161.245 120.219C163.437 120.219 165.28 119.918 166.773 119.315C168.267 118.713 169.014 117.81 169.014 116.605V95.6484C169.014 94.444 168.255 93.5407 166.737 92.9385C165.244 92.3363 163.413 92.0352 161.245 92.0352C159.077 92.0352 157.234 92.3363 155.717 92.9385C154.223 93.5407 153.477 94.444 153.477 95.6484V116.605ZM188.164 127.445V94.3838C188.164 91.1559 190.416 88.6748 194.921 86.9404C197.354 86.001 200.1 85.5312 203.159 85.5312C206.218 85.5312 208.965 86.001 211.397 86.9404C215.902 88.6748 218.154 91.1559 218.154 94.3838V124.193L211.289 127.445H210.928V95.6484C210.928 94.444 210.169 93.5407 208.651 92.9385C207.158 92.3363 205.327 92.0352 203.159 92.0352C200.991 92.0352 199.148 92.3363 197.631 92.9385C196.137 93.5407 195.391 94.444 195.391 95.6484V124.193L188.525 127.445H188.164ZM258.984 109.993V117.87C258.984 121.05 256.732 123.531 252.228 125.313C249.795 126.253 247.049 126.723 243.989 126.723C240.93 126.723 238.184 126.253 235.751 125.313C231.246 123.531 228.994 121.05 228.994 117.87V94.3838C228.994 91.2041 231.246 88.723 235.751 86.9404C238.184 86.001 240.93 85.5312 243.989 85.5312C247.049 85.5312 249.795 86.001 252.228 86.9404C256.732 88.723 258.984 91.2041 258.984 94.3838V99.0088L236.221 116.605C236.221 117.81 236.967 118.713 238.461 119.315C239.979 119.918 241.821 120.219 243.989 120.219C246.157 120.219 247.988 119.918 249.481 119.315C250.999 118.713 251.758 117.81 251.758 116.605V113.245L258.623 109.993H258.984ZM236.221 108.981L251.758 96.4795V95.6484C251.758 94.444 250.999 93.5407 249.481 92.9385C247.988 92.3363 246.157 92.0352 243.989 92.0352C241.821 92.0352 239.979 92.3363 238.461 92.9385C236.967 93.5407 236.221 94.444 236.221 95.6484V108.981ZM268.74 113.245L275.605 109.993H275.967V116.605C275.967 117.81 276.714 118.713 278.207 119.315C279.725 119.918 281.567 120.219 283.735 120.219C285.976 120.219 287.818 119.918 289.264 119.315C290.757 118.689 291.504 117.786 291.504 116.605V110.969C291.504 109.788 290.733 108.885 289.191 108.259C287.698 107.657 285.867 107.355 283.699 107.355C281.314 107.355 278.942 106.886 276.581 105.946C272.366 104.236 270.258 101.755 270.258 98.5029V94.3838C270.258 91.3005 272.257 88.8916 276.256 87.1572C278.737 86.0732 281.23 85.5312 283.735 85.5312C286.12 85.5312 288.18 85.8926 289.914 86.6152C294.081 88.3978 296.165 90.9873 296.165 94.3838L289.3 97.6357H288.938V95.6484C288.938 94.2513 288.445 93.2998 287.457 92.7939C286.469 92.2881 285.229 92.0352 283.735 92.0352C281.664 92.0352 280.098 92.3363 279.038 92.9385C278.002 93.5407 277.484 94.444 277.484 95.6484V97.2383C277.484 98.4427 277.978 99.346 278.966 99.9482C279.953 100.55 281.531 100.852 283.699 100.852C286.758 100.852 289.505 101.321 291.938 102.261C296.466 103.995 298.73 106.476 298.73 109.704V117.87C298.73 121.074 296.478 123.555 291.974 125.313C289.541 126.253 286.795 126.723 283.735 126.723C280.676 126.723 277.93 126.253 275.497 125.313C270.993 123.531 268.74 121.05 268.74 117.87V113.245ZM310.835 78.2686C309.992 77.4014 309.57 76.3656 309.57 75.1611C309.57 73.9326 309.992 72.8848 310.835 72.0176C311.678 71.1504 312.702 70.7168 313.906 70.7168C315.111 70.7168 316.134 71.1504 316.978 72.0176C317.821 72.8848 318.242 73.9326 318.242 75.1611C318.242 76.3656 317.821 77.4014 316.978 78.2686C316.134 79.1357 315.111 79.5693 313.906 79.5693C312.702 79.5693 311.678 79.1357 310.835 78.2686ZM310.293 127.445V88.0605L317.158 84.8086H317.52V124.193L310.654 127.445H310.293ZM357.627 124.193L350.762 127.445H350.4V125.494C348.088 126.313 345.619 126.723 342.993 126.723C340.175 126.723 337.549 126.253 335.116 125.313C330.612 123.531 328.359 121.05 328.359 117.87V108.114C328.359 104.886 330.612 102.405 335.116 100.671C337.549 99.7314 340.175 99.2617 342.993 99.2617C345.643 99.2617 348.112 99.6712 350.4 100.49V95.6484C350.4 94.444 349.642 93.5407 348.124 92.9385C346.631 92.3363 344.8 92.0352 342.632 92.0352H333.852V91.6738L336.742 85.5312H342.632C345.691 85.5312 348.437 86.001 350.87 86.9404C355.375 88.6748 357.627 91.1559 357.627 94.3838V124.193ZM335.586 116.605C335.586 117.81 336.333 118.713 337.826 119.315C339.344 119.918 341.066 120.219 342.993 120.219C344.92 120.219 346.631 119.918 348.124 119.315C349.642 118.713 350.4 117.81 350.4 116.605V109.379C350.4 108.174 349.642 107.271 348.124 106.669C346.631 106.067 344.92 105.766 342.993 105.766C341.066 105.766 339.344 106.067 337.826 106.669C336.333 107.271 335.586 108.174 335.586 109.379V116.605Z" fill="white"/>
<path d="M105.42 127.445H104.42V128.445H105.42V127.445ZM112.177 86.9404L112.536 87.8736L112.537 87.8733L112.177 86.9404ZM128.653 86.9404L128.293 87.8733L128.294 87.8736L128.653 86.9404ZM135.41 124.193L135.838 125.097L136.41 124.826V124.193H135.41ZM128.545 127.445V128.445H128.77L128.973 128.349L128.545 127.445ZM128.184 127.445H127.184V128.445H128.184V127.445ZM125.907 92.9385L125.533 93.8659L125.538 93.868L125.907 92.9385ZM114.887 92.9385L114.518 92.009L114.513 92.011L114.887 92.9385ZM112.646 124.193L113.075 125.097L113.646 124.826V124.193H112.646ZM105.781 127.445V128.445H106.006L106.209 128.349L105.781 127.445ZM106.42 127.445V94.3838H104.42V127.445H106.42ZM106.42 94.3838C106.42 91.7664 108.194 89.5456 112.536 87.8736L111.817 86.0072C107.151 87.804 104.42 90.5455 104.42 94.3838H106.42ZM112.537 87.8733C114.837 86.9852 117.458 86.5312 120.415 86.5312V84.5312C117.254 84.5312 114.382 85.0168 111.817 86.0076L112.537 87.8733ZM120.415 86.5312C123.372 86.5312 125.993 86.9852 128.293 87.8733L129.014 86.0076C126.448 85.0168 123.577 84.5312 120.415 84.5312V86.5312ZM128.294 87.8736C132.637 89.5456 134.41 91.7664 134.41 94.3838H136.41C136.41 90.5455 133.679 87.804 129.013 86.0072L128.294 87.8736ZM134.41 94.3838V124.193H136.41V94.3838H134.41ZM134.982 123.29L128.117 126.542L128.973 128.349L135.838 125.097L134.982 123.29ZM128.545 126.445H128.184V128.445H128.545V126.445ZM129.184 127.445V95.6484H127.184V127.445H129.184ZM129.184 95.6484C129.184 94.8163 128.914 94.0603 128.38 93.4244C127.861 92.8066 127.133 92.3489 126.276 92.009L125.538 93.868C126.199 94.1302 126.609 94.4253 126.849 94.7108C127.073 94.9782 127.184 95.2761 127.184 95.6484H129.184ZM126.281 92.011C124.635 91.3474 122.669 91.0352 120.415 91.0352V93.0352C122.497 93.0352 124.192 93.3251 125.533 93.8659L126.281 92.011ZM120.415 91.0352C118.16 91.0352 116.184 91.3477 114.518 92.009L115.256 93.868C116.624 93.3249 118.334 93.0352 120.415 93.0352V91.0352ZM114.513 92.011C113.667 92.3522 112.947 92.8116 112.436 93.4305C111.91 94.0667 111.646 94.8206 111.646 95.6484H113.646C113.646 95.2718 113.757 94.9719 113.977 94.7048C114.212 94.4204 114.613 94.1269 115.261 93.8659L114.513 92.011ZM111.646 95.6484V124.193H113.646V95.6484H111.646ZM112.218 123.29L105.353 126.542L106.209 128.349L113.075 125.097L112.218 123.29ZM105.781 126.445H105.42V128.445H105.781V126.445ZM153.007 86.9404L153.366 87.8736L153.367 87.8733L153.007 86.9404ZM169.483 86.9404L169.851 86.0106L169.844 86.0076L169.483 86.9404ZM169.483 140.128L169.124 139.195L169.123 139.195L169.483 140.128ZM150.008 141.537H149.008V142.537H150.008V141.537ZM150.008 141.176L149.103 140.75L149.008 140.952V141.176H150.008ZM152.898 135.033V134.033H152.264L151.994 134.607L152.898 135.033ZM166.737 134.13L166.368 133.2L166.363 133.202L166.737 134.13ZM169.014 125.494H170.014V124.079L168.68 124.552L169.014 125.494ZM153.007 125.313L152.639 126.243L152.647 126.246L153.007 125.313ZM155.717 119.315L155.343 120.243L155.348 120.245L155.717 119.315ZM166.737 92.9385L166.363 93.8659L166.368 93.868L166.737 92.9385ZM155.717 92.9385L155.348 92.009L155.343 92.011L155.717 92.9385ZM147.25 117.87V94.3838H145.25V117.87H147.25ZM147.25 94.3838C147.25 91.7664 149.024 89.5456 153.366 87.8736L152.648 86.0072C147.981 87.804 145.25 90.5455 145.25 94.3838H147.25ZM153.367 87.8733C155.667 86.9852 158.288 86.5312 161.245 86.5312V84.5312C158.084 84.5312 155.212 85.0168 152.647 86.0076L153.367 87.8733ZM161.245 86.5312C164.202 86.5312 166.823 86.9852 169.123 87.8733L169.844 86.0076C167.278 85.0168 164.407 84.5312 161.245 84.5312V86.5312ZM169.115 87.8703C173.469 89.5933 175.24 91.8162 175.24 94.3838H177.24C177.24 90.592 174.506 87.8527 169.851 86.0106L169.115 87.8703ZM175.24 94.3838V132.685H177.24V94.3838H175.24ZM175.24 132.685C175.24 135.302 173.467 137.523 169.124 139.195L169.843 141.061C174.509 139.264 177.24 136.523 177.24 132.685H175.24ZM169.123 139.195C166.823 140.083 164.202 140.537 161.245 140.537V142.537C164.407 142.537 167.278 142.052 169.844 141.061L169.123 139.195ZM161.245 140.537H150.008V142.537H161.245V140.537ZM151.008 141.537V141.176H149.008V141.537H151.008ZM150.913 141.602L153.803 135.459L151.994 134.607L149.103 140.75L150.913 141.602ZM152.898 136.033H161.245V134.033H152.898V136.033ZM161.245 136.033C163.499 136.033 165.466 135.721 167.111 135.057L166.363 133.202C165.022 133.743 163.327 134.033 161.245 134.033V136.033ZM167.106 135.059C167.963 134.719 168.691 134.262 169.21 133.644C169.744 133.008 170.014 132.252 170.014 131.42H168.014C168.014 131.792 167.904 132.09 167.679 132.358C167.439 132.643 167.029 132.938 166.368 133.2L167.106 135.059ZM170.014 131.42V125.494H168.014V131.42H170.014ZM168.68 124.552C166.491 125.327 164.017 125.723 161.245 125.723V127.723C164.207 127.723 166.911 127.3 169.348 126.437L168.68 124.552ZM161.245 125.723C158.288 125.723 155.667 125.269 153.367 124.381L152.647 126.246C155.212 127.237 158.084 127.723 161.245 127.723V125.723ZM153.375 124.384C149.021 122.661 147.25 120.438 147.25 117.87H145.25C145.25 121.662 147.984 124.401 152.639 126.243L153.375 124.384ZM152.477 116.605C152.477 117.433 152.74 118.187 153.266 118.823C153.778 119.442 154.497 119.902 155.343 120.243L156.091 118.388C155.443 118.127 155.042 117.834 154.807 117.549C154.587 117.282 154.477 116.982 154.477 116.605H152.477ZM155.348 120.245C157.014 120.906 158.99 121.219 161.245 121.219V119.219C159.164 119.219 157.454 118.929 156.086 118.386L155.348 120.245ZM161.245 121.219C163.522 121.219 165.501 120.907 167.147 120.243L166.399 118.388C165.059 118.928 163.352 119.219 161.245 119.219V121.219ZM167.147 120.243C167.994 119.902 168.713 119.442 169.224 118.823C169.75 118.187 170.014 117.433 170.014 116.605H168.014C168.014 116.982 167.904 117.282 167.683 117.549C167.448 117.834 167.047 118.127 166.399 118.388L167.147 120.243ZM170.014 116.605V95.6484H168.014V116.605H170.014ZM170.014 95.6484C170.014 94.8163 169.744 94.0603 169.21 93.4244C168.691 92.8066 167.963 92.3489 167.106 92.009L166.368 93.868C167.029 94.1302 167.439 94.4253 167.679 94.7108C167.904 94.9782 168.014 95.2761 168.014 95.6484H170.014ZM167.111 92.011C165.466 91.3474 163.499 91.0352 161.245 91.0352V93.0352C163.327 93.0352 165.022 93.3251 166.363 93.8659L167.111 92.011ZM161.245 91.0352C158.99 91.0352 157.014 91.3477 155.348 92.009L156.086 93.868C157.454 93.3249 159.164 93.0352 161.245 93.0352V91.0352ZM155.343 92.011C154.497 92.3522 153.778 92.8116 153.266 93.4305C152.74 94.0667 152.477 94.8206 152.477 95.6484H154.477C154.477 95.2718 154.587 94.9719 154.807 94.7048C155.042 94.4204 155.443 94.1269 156.091 93.8659L155.343 92.011ZM152.477 95.6484V116.605H154.477V95.6484H152.477ZM188.164 127.445H187.164V128.445H188.164V127.445ZM194.921 86.9404L195.28 87.8736L195.281 87.8733L194.921 86.9404ZM211.397 86.9404L211.037 87.8733L211.038 87.8736L211.397 86.9404ZM218.154 124.193L218.582 125.097L219.154 124.826V124.193H218.154ZM211.289 127.445V128.445H211.514L211.717 128.349L211.289 127.445ZM210.928 127.445H209.928V128.445H210.928V127.445ZM208.651 92.9385L208.277 93.8659L208.283 93.868L208.651 92.9385ZM197.631 92.9385L197.262 92.009L197.257 92.011L197.631 92.9385ZM195.391 124.193L195.819 125.097L196.391 124.826V124.193H195.391ZM188.525 127.445V128.445H188.75L188.953 128.349L188.525 127.445ZM189.164 127.445V94.3838H187.164V127.445H189.164ZM189.164 94.3838C189.164 91.7664 190.938 89.5456 195.28 87.8736L194.562 86.0072C189.895 87.804 187.164 90.5455 187.164 94.3838H189.164ZM195.281 87.8733C197.581 86.9852 200.202 86.5312 203.159 86.5312V84.5312C199.998 84.5312 197.127 85.0168 194.561 86.0076L195.281 87.8733ZM203.159 86.5312C206.116 86.5312 208.737 86.9852 211.037 87.8733L211.758 86.0076C209.192 85.0168 206.321 84.5312 203.159 84.5312V86.5312ZM211.038 87.8736C215.381 89.5456 217.154 91.7664 217.154 94.3838H219.154C219.154 90.5455 216.423 87.804 211.757 86.0072L211.038 87.8736ZM217.154 94.3838V124.193H219.154V94.3838H217.154ZM217.726 123.29L210.861 126.542L211.717 128.349L218.582 125.097L217.726 123.29ZM211.289 126.445H210.928V128.445H211.289V126.445ZM211.928 127.445V95.6484H209.928V127.445H211.928ZM211.928 95.6484C211.928 94.8163 211.659 94.0603 211.124 93.4244C210.605 92.8066 209.877 92.3489 209.02 92.009L208.283 93.868C208.943 94.1302 209.353 94.4253 209.593 94.7108C209.818 94.9782 209.928 95.2761 209.928 95.6484H211.928ZM209.025 92.011C207.38 91.3474 205.414 91.0352 203.159 91.0352V93.0352C205.241 93.0352 206.936 93.3251 208.277 93.8659L209.025 92.011ZM203.159 91.0352C200.904 91.0352 198.929 91.3477 197.262 92.009L198 93.868C199.368 93.3249 201.078 93.0352 203.159 93.0352V91.0352ZM197.257 92.011C196.411 92.3522 195.692 92.8116 195.18 93.4305C194.654 94.0667 194.391 94.8206 194.391 95.6484H196.391C196.391 95.2718 196.501 94.9719 196.721 94.7048C196.957 94.4204 197.358 94.1269 198.005 93.8659L197.257 92.011ZM194.391 95.6484V124.193H196.391V95.6484H194.391ZM194.963 123.29L188.097 126.542L188.953 128.349L195.819 125.097L194.963 123.29ZM188.525 126.445H188.164V128.445H188.525V126.445ZM258.984 109.993H259.984V108.993H258.984V109.993ZM252.228 125.313L252.588 126.246L252.595 126.243L252.228 125.313ZM235.751 125.313L235.383 126.243L235.391 126.246L235.751 125.313ZM235.751 86.9404L235.391 86.0075L235.383 86.0106L235.751 86.9404ZM252.228 86.9404L252.596 86.0106L252.588 86.0076L252.228 86.9404ZM258.984 99.0088L259.596 99.8L259.984 99.4997V99.0088H258.984ZM236.221 116.605L235.609 115.814L235.221 116.115V116.605H236.221ZM238.461 119.315L238.087 120.243L238.092 120.245L238.461 119.315ZM249.481 119.315L249.113 118.386L249.107 118.388L249.481 119.315ZM251.758 113.245L251.33 112.341L250.758 112.612V113.245H251.758ZM258.623 109.993V108.993H258.398L258.195 109.089L258.623 109.993ZM236.221 108.981H235.221V111.07L236.848 109.761L236.221 108.981ZM251.758 96.4795L252.385 97.2586L252.758 96.9584V96.4795H251.758ZM249.481 92.9385L249.107 93.8659L249.113 93.868L249.481 92.9385ZM238.461 92.9385L238.092 92.009L238.087 92.011L238.461 92.9385ZM257.984 109.993V117.87H259.984V109.993H257.984ZM257.984 117.87C257.984 120.438 256.214 122.661 251.86 124.384L252.595 126.243C257.251 124.401 259.984 121.662 259.984 117.87H257.984ZM251.867 124.381C249.567 125.269 246.946 125.723 243.989 125.723V127.723C247.151 127.723 250.022 127.237 252.588 126.246L251.867 124.381ZM243.989 125.723C241.032 125.723 238.411 125.269 236.111 124.381L235.391 126.246C237.957 127.237 240.828 127.723 243.989 127.723V125.723ZM236.119 124.384C231.765 122.661 229.994 120.438 229.994 117.87H227.994C227.994 121.662 230.728 124.401 235.383 126.243L236.119 124.384ZM229.994 117.87V94.3838H227.994V117.87H229.994ZM229.994 94.3838C229.994 91.8162 231.765 89.5933 236.119 87.8703L235.383 86.0106C230.728 87.8527 227.994 90.592 227.994 94.3838H229.994ZM236.111 87.8733C238.411 86.9852 241.032 86.5312 243.989 86.5312V84.5312C240.828 84.5312 237.957 85.0168 235.391 86.0076L236.111 87.8733ZM243.989 86.5312C246.946 86.5312 249.567 86.9852 251.867 87.8733L252.588 86.0076C250.022 85.0168 247.151 84.5312 243.989 84.5312V86.5312ZM251.86 87.8703C256.214 89.5933 257.984 91.8162 257.984 94.3838H259.984C259.984 90.592 257.251 87.8527 252.595 86.0106L251.86 87.8703ZM257.984 94.3838V99.0088H259.984V94.3838H257.984ZM258.373 98.2176L235.609 115.814L236.832 117.397L259.596 99.8L258.373 98.2176ZM235.221 116.605C235.221 117.433 235.484 118.187 236.01 118.823C236.522 119.442 237.241 119.902 238.087 120.243L238.835 118.388C238.188 118.127 237.787 117.834 237.552 117.549C237.331 117.282 237.221 116.982 237.221 116.605H235.221ZM238.092 120.245C239.759 120.906 241.734 121.219 243.989 121.219V119.219C241.908 119.219 240.198 118.929 238.83 118.386L238.092 120.245ZM243.989 121.219C246.244 121.219 248.21 120.906 249.855 120.243L249.107 118.388C247.766 118.929 246.071 119.219 243.989 119.219V121.219ZM249.85 120.245C250.707 119.905 251.435 119.447 251.954 118.829C252.489 118.194 252.758 117.438 252.758 116.605H250.758C250.758 116.978 250.648 117.276 250.423 117.543C250.183 117.829 249.774 118.124 249.113 118.386L249.85 120.245ZM252.758 116.605V113.245H250.758V116.605H252.758ZM252.186 114.149L259.051 110.897L258.195 109.089L251.33 112.341L252.186 114.149ZM258.623 110.993H258.984V108.993H258.623V110.993ZM236.848 109.761L252.385 97.2586L251.131 95.7004L235.594 108.202L236.848 109.761ZM252.758 96.4795V95.6484H250.758V96.4795H252.758ZM252.758 95.6484C252.758 94.8163 252.489 94.0603 251.954 93.4244C251.435 92.8066 250.707 92.3489 249.85 92.009L249.113 93.868C249.774 94.1302 250.183 94.4253 250.423 94.7108C250.648 94.9782 250.758 95.2761 250.758 95.6484H252.758ZM249.855 92.011C248.21 91.3474 246.244 91.0352 243.989 91.0352V93.0352C246.071 93.0352 247.766 93.3251 249.107 93.8659L249.855 92.011ZM243.989 91.0352C241.734 91.0352 239.759 91.3477 238.092 92.009L238.83 93.868C240.198 93.3249 241.908 93.0352 243.989 93.0352V91.0352ZM238.087 92.011C237.241 92.3522 236.522 92.8116 236.01 93.4305C235.484 94.0667 235.221 94.8206 235.221 95.6484H237.221C237.221 95.2718 237.331 94.9719 237.552 94.7048C237.787 94.4204 238.188 94.1269 238.835 93.8659L238.087 92.011ZM235.221 95.6484V108.981H237.221V95.6484H235.221ZM268.74 113.245L268.312 112.341L267.74 112.612V113.245H268.74ZM275.605 109.993V108.993H275.381L275.177 109.089L275.605 109.993ZM275.967 109.993H276.967V108.993H275.967V109.993ZM278.207 119.315L277.833 120.243L277.838 120.245L278.207 119.315ZM289.264 119.315L289.648 120.239L289.65 120.238L289.264 119.315ZM289.191 108.259L289.568 107.332L289.565 107.331L289.191 108.259ZM276.581 105.946L276.205 106.873L276.211 106.875L276.581 105.946ZM276.256 87.1572L276.654 88.0747L276.656 88.0736L276.256 87.1572ZM289.914 86.6152L290.307 85.6958L290.299 85.6922L289.914 86.6152ZM296.165 94.3838L296.593 95.2875L297.165 95.0166V94.3838H296.165ZM289.3 97.6357V98.6357H289.525L289.728 98.5395L289.3 97.6357ZM288.938 97.6357H287.938V98.6357H288.938V97.6357ZM279.038 92.9385L278.544 92.069L278.535 92.074L279.038 92.9385ZM291.938 102.261L291.577 103.194L291.58 103.195L291.938 102.261ZM291.974 125.313L292.334 126.246L292.337 126.245L291.974 125.313ZM275.497 125.313L275.129 126.243L275.137 126.246L275.497 125.313ZM269.168 114.149L276.034 110.897L275.177 109.089L268.312 112.341L269.168 114.149ZM275.605 110.993H275.967V108.993H275.605V110.993ZM274.967 109.993V116.605H276.967V109.993H274.967ZM274.967 116.605C274.967 117.433 275.23 118.187 275.756 118.823C276.268 119.442 276.987 119.902 277.833 120.243L278.581 118.388C277.934 118.127 277.533 117.834 277.298 117.549C277.077 117.282 276.967 116.982 276.967 116.605H274.967ZM277.838 120.245C279.505 120.906 281.48 121.219 283.735 121.219V119.219C281.655 119.219 279.944 118.929 278.576 118.386L277.838 120.245ZM283.735 121.219C286.055 121.219 288.041 120.908 289.648 120.239L288.879 118.392C287.596 118.927 285.896 119.219 283.735 119.219V121.219ZM289.65 120.238C290.492 119.885 291.206 119.42 291.715 118.805C292.237 118.173 292.504 117.426 292.504 116.605H290.504C290.504 116.965 290.397 117.26 290.173 117.531C289.935 117.82 289.528 118.12 288.877 118.393L289.65 120.238ZM292.504 116.605V110.969H290.504V116.605H292.504ZM292.504 110.969C292.504 109.214 291.303 108.037 289.568 107.332L288.815 109.185C290.163 109.733 290.504 110.363 290.504 110.969H292.504ZM289.565 107.331C287.92 106.668 285.954 106.355 283.699 106.355V108.355C285.781 108.355 287.476 108.645 288.817 109.186L289.565 107.331ZM283.699 106.355C281.449 106.355 279.202 105.913 276.951 105.017L276.211 106.875C278.682 107.859 281.18 108.355 283.699 108.355V106.355ZM276.957 105.02C274.943 104.202 273.517 103.234 272.601 102.155C271.7 101.095 271.258 99.8914 271.258 98.5029H269.258C269.258 100.366 269.869 102.029 271.077 103.45C272.268 104.853 274.004 105.98 276.205 106.873L276.957 105.02ZM271.258 98.5029V94.3838H269.258V98.5029H271.258ZM271.258 94.3838C271.258 91.8619 272.843 89.7275 276.654 88.0746L275.858 86.2398C271.671 88.0557 269.258 90.739 269.258 94.3838H271.258ZM276.656 88.0736C279.021 87.0403 281.379 86.5312 283.735 86.5312V84.5312C281.082 84.5312 278.453 85.1062 275.856 86.2409L276.656 88.0736ZM283.735 86.5312C286.022 86.5312 287.945 86.8781 289.529 87.5383L290.299 85.6922C288.414 84.9071 286.218 84.5312 283.735 84.5312V86.5312ZM289.521 87.5347C291.506 88.3838 292.915 89.392 293.823 90.5212C294.719 91.6341 295.165 92.9082 295.165 94.3838H297.165C297.165 92.4629 296.57 90.744 295.381 89.2674C294.206 87.8071 292.489 86.6292 290.307 85.6958L289.521 87.5347ZM295.737 93.4801L288.872 96.732L289.728 98.5395L296.593 95.2875L295.737 93.4801ZM289.3 96.6357H288.938V98.6357H289.3V96.6357ZM289.938 97.6357V95.6484H287.938V97.6357H289.938ZM289.938 95.6484C289.938 93.9916 289.326 92.6278 287.913 91.9039L287.001 93.684C287.563 93.9718 287.938 94.511 287.938 95.6484H289.938ZM287.913 91.9039C286.744 91.3052 285.335 91.0352 283.735 91.0352V93.0352C285.123 93.0352 286.195 93.271 287.001 93.684L287.913 91.9039ZM283.735 91.0352C281.597 91.0352 279.826 91.3407 278.544 92.069L279.532 93.8079C280.37 93.3318 281.731 93.0352 283.735 93.0352V91.0352ZM278.535 92.074C277.19 92.8564 276.484 94.0901 276.484 95.6484H278.484C278.484 94.7979 278.815 94.225 279.541 93.803L278.535 92.074ZM276.484 95.6484V97.2383H278.484V95.6484H276.484ZM276.484 97.2383C276.484 98.7739 277.145 100.009 278.445 100.802L279.486 99.0944C278.811 98.6827 278.484 98.1115 278.484 97.2383H276.484ZM278.445 100.802C279.675 101.552 281.483 101.852 283.699 101.852V99.8516C281.579 99.8516 280.232 99.549 279.486 99.0944L278.445 100.802ZM283.699 101.852C286.656 101.852 289.277 102.305 291.577 103.194L292.298 101.328C289.732 100.337 286.861 99.8516 283.699 99.8516V101.852ZM291.58 103.195C295.949 104.868 297.73 107.09 297.73 109.704H299.73C299.73 105.863 296.983 103.122 292.295 101.327L291.58 103.195ZM297.73 109.704V117.87H299.73V109.704H297.73ZM297.73 117.87C297.73 120.463 295.958 122.684 291.61 124.382L292.337 126.245C296.998 124.426 299.73 121.685 299.73 117.87H297.73ZM291.613 124.381C289.313 125.269 286.692 125.723 283.735 125.723V127.723C286.897 127.723 289.768 127.237 292.334 126.246L291.613 124.381ZM283.735 125.723C280.778 125.723 278.157 125.269 275.857 124.381L275.137 126.246C277.703 127.237 280.574 127.723 283.735 127.723V125.723ZM275.865 124.384C271.511 122.661 269.74 120.438 269.74 117.87H267.74C267.74 121.662 270.474 124.401 275.129 126.243L275.865 124.384ZM269.74 117.87V113.245H267.74V117.87H269.74ZM310.293 127.445H309.293V128.445H310.293V127.445ZM310.293 88.0605L309.865 87.1568L309.293 87.4277V88.0605H310.293ZM317.158 84.8086V83.8086H316.933L316.73 83.9049L317.158 84.8086ZM317.52 84.8086H318.52V83.8086H317.52V84.8086ZM317.52 124.193L317.948 125.097L318.52 124.826V124.193H317.52ZM310.654 127.445V128.445H310.879L311.082 128.349L310.654 127.445ZM311.552 77.5715C310.889 76.8901 310.57 76.104 310.57 75.1611H308.57C308.57 76.6271 309.094 77.9127 310.118 78.9656L311.552 77.5715ZM310.57 75.1611C310.57 74.1884 310.894 73.3919 311.552 72.7147L310.118 71.3205C309.09 72.3776 308.57 73.6769 308.57 75.1611H310.57ZM311.552 72.7147C312.208 72.0402 312.973 71.7168 313.906 71.7168V69.7168C312.43 69.7168 311.148 70.2606 310.118 71.3205L311.552 72.7147ZM313.906 71.7168C314.839 71.7168 315.605 72.0402 316.261 72.7147L317.695 71.3205C316.664 70.2606 315.382 69.7168 313.906 69.7168V71.7168ZM316.261 72.7147C316.919 73.3919 317.242 74.1884 317.242 75.1611H319.242C319.242 73.6769 318.722 72.3776 317.695 71.3205L316.261 72.7147ZM317.242 75.1611C317.242 76.104 316.923 76.8901 316.261 77.5715L317.695 78.9656C318.718 77.9127 319.242 76.6271 319.242 75.1611H317.242ZM316.261 77.5715C315.605 78.2459 314.839 78.5693 313.906 78.5693V80.5693C315.382 80.5693 316.664 80.0256 317.695 78.9656L316.261 77.5715ZM313.906 78.5693C312.973 78.5693 312.208 78.2459 311.552 77.5715L310.118 78.9656C311.148 80.0256 312.43 80.5693 313.906 80.5693V78.5693ZM311.293 127.445V88.0605H309.293V127.445H311.293ZM310.721 88.9643L317.586 85.7123L316.73 83.9049L309.865 87.1568L310.721 88.9643ZM317.158 85.8086H317.52V83.8086H317.158V85.8086ZM316.52 84.8086V124.193H318.52V84.8086H316.52ZM317.091 123.29L310.226 126.542L311.082 128.349L317.948 125.097L317.091 123.29ZM310.654 126.445H310.293V128.445H310.654V126.445ZM357.627 124.193L358.055 125.097L358.627 124.826V124.193H357.627ZM350.762 127.445V128.445H350.987L351.19 128.349L350.762 127.445ZM350.4 127.445H349.4V128.445H350.4V127.445ZM350.4 125.494H351.4V124.079L350.067 124.552L350.4 125.494ZM335.116 125.313L334.748 126.243L334.756 126.246L335.116 125.313ZM335.116 100.671L335.476 101.604L335.476 101.604L335.116 100.671ZM350.4 100.49L350.063 101.432L351.4 101.91V100.49H350.4ZM348.124 92.9385L347.75 93.8659L347.755 93.868L348.124 92.9385ZM333.852 92.0352H332.852V93.0352H333.852V92.0352ZM333.852 91.6738L332.947 91.248L332.852 91.4503V91.6738H333.852ZM336.742 85.5312V84.5312H336.108L335.837 85.1055L336.742 85.5312ZM350.87 86.9404L350.51 87.8733L350.511 87.8736L350.87 86.9404ZM337.826 119.315L337.452 120.243L337.457 120.245L337.826 119.315ZM348.124 119.315L347.755 118.386L347.75 118.388L348.124 119.315ZM348.124 106.669L347.75 107.596L347.755 107.598L348.124 106.669ZM337.826 106.669L337.457 105.739L337.452 105.742L337.826 106.669ZM357.199 123.29L350.334 126.542L351.19 128.349L358.055 125.097L357.199 123.29ZM350.762 126.445H350.4V128.445H350.762V126.445ZM351.4 127.445V125.494H349.4V127.445H351.4ZM350.067 124.552C347.869 125.33 345.513 125.723 342.993 125.723V127.723C345.725 127.723 348.307 127.296 350.734 126.437L350.067 124.552ZM342.993 125.723C340.288 125.723 337.785 125.272 335.476 124.381L334.756 126.246C337.313 127.234 340.062 127.723 342.993 127.723V125.723ZM335.484 124.384C331.13 122.661 329.359 120.438 329.359 117.87H327.359C327.359 121.662 330.093 124.401 334.748 126.243L335.484 124.384ZM329.359 117.87V108.114H327.359V117.87H329.359ZM329.359 108.114C329.359 105.497 331.133 103.276 335.476 101.604L334.757 99.7377C330.09 101.534 327.359 104.276 327.359 108.114H329.359ZM335.476 101.604C337.785 100.712 340.288 100.262 342.993 100.262V98.2617C340.062 98.2617 337.313 98.7507 334.756 99.738L335.476 101.604ZM342.993 100.262C345.538 100.262 347.892 100.655 350.063 101.432L350.737 99.5487C348.331 98.6877 345.747 98.2617 342.993 98.2617V100.262ZM351.4 100.49V95.6484H349.4V100.49H351.4ZM351.4 95.6484C351.4 94.8163 351.131 94.0603 350.597 93.4244C350.078 92.8066 349.35 92.3489 348.493 92.009L347.755 93.868C348.416 94.1302 348.826 94.4253 349.066 94.7108C349.29 94.9782 349.4 95.2761 349.4 95.6484H351.4ZM348.498 92.011C346.852 91.3474 344.886 91.0352 342.632 91.0352V93.0352C344.713 93.0352 346.409 93.3251 347.75 93.8659L348.498 92.011ZM342.632 91.0352H333.852V93.0352H342.632V91.0352ZM334.852 92.0352V91.6738H332.852V92.0352H334.852ZM334.756 92.0996L337.647 85.957L335.837 85.1055L332.947 91.248L334.756 92.0996ZM336.742 86.5312H342.632V84.5312H336.742V86.5312ZM342.632 86.5312C345.589 86.5312 348.21 86.9852 350.51 87.8733L351.23 86.0076C348.664 85.0168 345.793 84.5312 342.632 84.5312V86.5312ZM350.511 87.8736C354.853 89.5456 356.627 91.7664 356.627 94.3838H358.627C358.627 90.5455 355.896 87.804 351.229 86.0072L350.511 87.8736ZM356.627 94.3838V124.193H358.627V94.3838H356.627ZM334.586 116.605C334.586 117.433 334.849 118.187 335.375 118.823C335.887 119.442 336.606 119.902 337.452 120.243L338.2 118.388C337.553 118.127 337.152 117.834 336.917 117.549C336.696 117.282 336.586 116.982 336.586 116.605H334.586ZM337.457 120.245C339.111 120.901 340.962 121.219 342.993 121.219V119.219C341.17 119.219 339.576 118.934 338.195 118.386L337.457 120.245ZM342.993 121.219C345.024 121.219 346.865 120.901 348.498 120.243L347.75 118.388C346.396 118.934 344.817 119.219 342.993 119.219V121.219ZM348.493 120.245C349.35 119.905 350.078 119.447 350.597 118.829C351.131 118.194 351.4 117.438 351.4 116.605H349.4C349.4 116.978 349.29 117.276 349.066 117.543C348.826 117.829 348.416 118.124 347.755 118.386L348.493 120.245ZM351.4 116.605V109.379H349.4V116.605H351.4ZM351.4 109.379C351.4 108.547 351.131 107.791 350.597 107.155C350.078 106.537 349.35 106.079 348.493 105.739L347.755 107.598C348.416 107.861 348.826 108.156 349.066 108.441C349.29 108.709 349.4 109.007 349.4 109.379H351.4ZM348.498 105.742C346.865 105.083 345.024 104.766 342.993 104.766V106.766C344.817 106.766 346.396 107.051 347.75 107.596L348.498 105.742ZM342.993 104.766C340.962 104.766 339.111 105.083 337.457 105.739L338.195 107.598C339.576 107.05 341.17 106.766 342.993 106.766V104.766ZM337.452 105.742C336.606 106.083 335.887 106.542 335.375 107.161C334.849 107.797 334.586 108.551 334.586 109.379H336.586C336.586 109.002 336.696 108.702 336.917 108.435C337.152 108.151 337.553 107.857 338.2 107.596L337.452 105.742ZM334.586 109.379V116.605H336.586V109.379H334.586Z" fill="#FFF1F1"/>
<path d="M117.543 23.7284C107.95 58.3996 87.7864 126.066 82.3549 143.917C81.9714 145.177 80.8191 146 79.5015 146H58.1869C56.2097 146 54.7732 144.121 55.292 142.213L59.6553 126.167L38.2481 124.514C37.5102 124.457 36.8193 124.129 36.3084 123.594L19.234 105.695C18.0285 104.431 18.153 102.409 19.5043 101.303L24.3544 97.3322L36.8732 89.4486C37.0254 89.3527 37.1859 89.2707 37.3528 89.2037L49.7075 84.2368C50.4277 83.9472 51.2321 83.9481 51.9517 84.2392L71.9126 92.3149L87.5711 39.5307C88.0997 37.7486 86.897 35.9195 85.0512 35.6987L58.9244 32.5737C56.1539 32.2423 55.2967 28.6394 57.6211 27.0958L94.8729 2.35775C96.0623 1.5679 97.6435 1.72573 98.6534 2.73506L116.765 20.8382C117.528 21.6013 117.831 22.6882 117.543 23.7284Z" fill="#009F8F"/>
<path d="M71.9126 92.3149L87.5711 39.5307C88.0997 37.7486 86.897 35.9195 85.0512 35.6987L58.9244 32.5737C56.1539 32.2423 55.2967 28.6394 57.6211 27.0958L94.8729 2.35775C96.0623 1.5679 97.6435 1.72573 98.6534 2.73506L116.765 20.8382C117.528 21.6013 117.831 22.6882 117.543 23.7284C107.95 58.3996 87.7864 126.066 82.3549 143.917C81.9714 145.177 80.8191 146 79.5015 146H58.1869C56.2097 146 54.7732 144.121 55.292 142.213L59.6553 126.167M71.9126 92.3149L63.7168 123.999C63.3527 125.407 62.0313 126.351 60.5814 126.239L59.6553 126.167M71.9126 92.3149L51.9517 84.2392C51.2321 83.9481 50.4277 83.9472 49.7075 84.2368L37.3528 89.2036C37.1859 89.2707 37.0254 89.3527 36.8732 89.4486L24.3544 97.3322L19.5043 101.303C18.153 102.409 18.0285 104.431 19.234 105.695L36.3084 123.594C36.8193 124.129 37.5102 124.457 38.2481 124.514L59.6553 126.167" stroke="black" stroke-width="3"/>
<path d="M42.484 173.412L44.1451 153.707C44.3046 151.814 46.1607 150.544 47.9826 151.081L49.2691 151.461C50.5944 151.851 51.4837 153.095 51.4003 154.474C50.9283 162.276 49.6727 174.883 47.485 177.14C45.2694 179.425 43.4474 176.664 42.6357 174.58C42.4913 174.209 42.4506 173.809 42.484 173.412Z" fill="#009F8F" stroke="black" stroke-width="3"/>
<path d="M26.2921 173.473L27.1349 154.344C27.2122 152.59 28.7737 151.276 30.5157 151.501L32.6206 151.772C34.1692 151.972 35.3077 153.323 35.21 154.881C34.7196 162.707 33.4699 174.922 31.3199 177.14C29.0835 179.447 27.2482 176.612 26.4481 174.522C26.3202 174.188 26.2763 173.83 26.2921 173.473Z" fill="#009F8F" stroke="black" stroke-width="3"/>
<path d="M79.3255 115.647C79.3255 137.276 61.8955 154.795 40.4127 154.795C18.93 154.795 1.5 137.276 1.5 115.647C1.5 94.0187 18.93 76.5 40.4127 76.5C61.8955 76.5 79.3255 94.0187 79.3255 115.647Z" fill="#009F8F" stroke="black" stroke-width="3"/>
<path d="M54.5572 102.098C54.5572 109.581 48.6768 115.647 41.4231 115.647C34.1693 115.647 28.2889 109.581 28.2889 102.098C28.2889 94.6153 34.1693 88.5491 41.4231 88.5491C48.6768 88.5491 54.5572 94.6153 54.5572 102.098Z" fill="#FFFBFB"/>
<path d="M60.6191 124.391C60.6191 131.224 48.3525 139.619 41.9799 139.619C35.6073 139.619 24.2477 132.669 24.2477 125.835C24.2477 119.002 36.0421 121.535 41.9993 123.932C48.4683 122.487 60.6191 117.557 60.6191 124.391Z" fill="#FFFBFB"/>
<path d="M46.4746 105.225C46.4746 108.103 44.213 110.436 41.4231 110.436C38.6331 110.436 36.3715 108.103 36.3715 105.225C36.3715 102.347 38.6331 100.014 41.4231 100.014C44.213 100.014 46.4746 102.347 46.4746 105.225Z" fill="#FE1111"/>
<path d="M31.7747 173.357C31.2056 173.357 30.749 173.043 30.1142 173.13C29.6199 173.198 27.9502 173.768 27.9253 174.434C27.8703 175.91 30.0459 176.044 31.152 176.044C31.8392 176.044 32.496 175.235 32.6553 174.577C32.8631 173.72 31.6285 173.142 31.1017 172.78C30.6158 172.446 29.8063 172.222 29.2336 172.384C28.5702 172.572 27.2167 172.914 27.246 173.85C27.2711 174.653 27.9767 175.663 28.6927 175.992C29.465 176.346 30.4575 176.092 31.1898 175.752C32.8763 174.969 32.3206 172.685 31.347 171.476C30.8881 170.905 30.2783 170.71 29.5984 171.06C27.9526 171.909 27.9105 172.626 28.0385 174.408" stroke="#009F8F" stroke-width="3" stroke-linecap="round"/>
<path d="M47.1081 173.101C47.1081 171.527 43.4523 172.26 43.3719 173.919C43.2866 175.679 45.754 175.787 46.9886 175.787C47.9079 175.787 48.1905 175.252 48.1208 174.211C48.0039 172.461 46.0598 171.088 44.7935 172.751C43.8187 174.03 46.9859 175.925 47.9636 175.061C48.364 174.707 48.3698 173.566 47.8944 173.276C46.9868 172.724 45.7441 172.867 44.7306 172.867" stroke="#009F8F" stroke-width="3" stroke-linecap="round"/>
</svg>
